<svg width="24" height="25" viewBox="0 0 24 25" fill="none" xmlns="http://www.w3.org/2000/svg">
<path d="M6 20.1681C7.1 20.1681 8 19.2681 8 18.1681V11.1681C8 10.0681 7.1 9.16809 6 9.16809C4.9 9.16809 4 10.0681 4 11.1681V18.1681C4 19.2681 4.9 20.1681 6 20.1681ZM16 15.1681V18.1681C16 19.2681 16.9 20.1681 18 20.1681C19.1 20.1681 20 19.2681 20 18.1681V15.1681C20 14.0681 19.1 13.1681 18 13.1681C16.9 13.1681 16 14.0681 16 15.1681ZM12 20.1681C13.1 20.1681 14 19.2681 14 18.1681V6.16809C14 5.06809 13.1 4.16809 12 4.16809C10.9 4.16809 10 5.06809 10 6.16809V18.1681C10 19.2681 10.9 20.1681 12 20.1681Z" fill="#989898"/>
</svg>
