<svg width="40" height="38" viewBox="0 0 40 38" fill="none" xmlns="http://www.w3.org/2000/svg">
<path d="M29.75 34.6667C30.612 34.6667 31.4386 34.3419 32.0481 33.7636C32.6576 33.1854 33 32.4011 33 31.5834V6.91671C33 6.09896 32.6576 5.3147 32.0481 4.73646C31.4386 4.15822 30.612 3.83337 29.75 3.83337H20V14.625L15.9375 12.3125L11.875 14.625V3.83337H10.25C9.38805 3.83337 8.5614 4.15822 7.9519 4.73646C7.34241 5.3147 7 6.09896 7 6.91671V31.5834C7 32.4011 7.34241 33.1854 7.9519 33.7636C8.5614 34.3419 9.38805 34.6667 10.25 34.6667H29.75Z" fill="#434D75"/>
</svg>
