<svg width="40" height="41" viewBox="0 0 40 41" fill="none" xmlns="http://www.w3.org/2000/svg">
<path d="M8.18833 5.09666C11.6467 4.64666 15.1717 4.41666 18.75 4.41666C22.3283 4.41666 25.8533 4.64832 29.3117 5.09666C32.515 5.51332 34.7967 8.19832 34.9867 11.3083C34.4295 11.1227 33.852 11.0046 33.2667 10.9567C28.5969 10.569 23.9031 10.569 19.2333 10.9567C15.3033 11.2833 12.5 14.6067 12.5 18.3467V25.49C12.4984 26.8629 12.8763 28.2096 13.5919 29.3814C14.3074 30.5531 15.3329 31.5043 16.555 32.13L12.1333 36.55C11.9585 36.7246 11.7359 36.8435 11.4936 36.8916C11.2512 36.9397 11.0001 36.915 10.7718 36.8205C10.5435 36.726 10.3484 36.5659 10.211 36.3605C10.0736 36.1552 10.0002 35.9137 10 35.6667V28.95C9.39533 28.8857 8.7914 28.8146 8.18833 28.7367C4.84167 28.3 2.5 25.3883 2.5 22.1033V11.73C2.5 8.44666 4.84167 5.53166 8.18833 5.09666Z" fill="#434D75"/>
<path d="M26.25 13.1667C23.9567 13.1667 21.685 13.2617 19.44 13.4483C16.8733 13.6617 15 15.8383 15 18.3483V25.49C15 28.0017 16.88 30.18 19.45 30.39C21.5217 30.56 23.6167 30.6517 25.73 30.665L30.3667 35.3C30.5415 35.4746 30.7641 35.5935 31.0064 35.6416C31.2488 35.6897 31.4999 35.665 31.7282 35.5705C31.9565 35.476 32.1516 35.3159 32.289 35.1105C32.4264 34.9052 32.4998 34.6637 32.5 34.4167V30.4333L33.05 30.39C35.62 30.1817 37.5 28.0017 37.5 25.49V18.3467C37.5 15.8383 35.625 13.6617 33.06 13.4467C30.7948 13.2594 28.5229 13.1659 26.25 13.1667Z" fill="#434D75"/>
</svg>
