<svg width="48" height="53" viewBox="0 0 48 53" fill="none" xmlns="http://www.w3.org/2000/svg">
<path fill-rule="evenodd" clip-rule="evenodd" d="M39 9.9375C39 9.05897 38.6839 8.21642 38.1213 7.59521C37.5587 6.97399 36.7956 6.625 36 6.625H12C11.2044 6.625 10.4413 6.97399 9.87868 7.59521C9.31607 8.21642 9 9.05897 9 9.9375V43.0625C9 43.941 9.31607 44.7836 9.87868 45.4048C10.4413 46.026 11.2044 46.375 12 46.375H24V43.0625H12V9.9375H36V19.875H39V9.9375Z" fill="#434D75"/>
<path d="M15 29.8125H24V33.125H15V29.8125ZM15 23.1875H33V26.5H15V23.1875Z" fill="#434D75"/>
<path fill-rule="evenodd" clip-rule="evenodd" d="M33 16.5625V19.875H15V16.5625H33ZM37.5 38.0938L45 41.4062V38.0938L37.5 33.9531V29.8125C37.5 29.3732 37.342 28.952 37.0607 28.6414C36.7794 28.3307 36.3978 28.1562 36 28.1562C35.6022 28.1562 35.2206 28.3307 34.9393 28.6414C34.658 28.952 34.5 29.3732 34.5 29.8125V33.9531L27 38.0938V41.4062L34.5 38.0938V43.8906L31.5 46.375V48.0312L36 46.375L40.5 48.0312V46.375L37.5 43.8906V38.0938Z" fill="#434D75"/>
</svg>
