<svg width="40" height="40" viewBox="0 0 40 40" fill="none" xmlns="http://www.w3.org/2000/svg">
<path d="M19.1166 6.40167C19.351 6.16759 19.6687 6.03611 19.9999 6.03611C20.3312 6.03611 20.6489 6.16759 20.8833 6.40167L35.3666 20.885C35.482 21.0043 35.62 21.0995 35.7725 21.1649C35.925 21.2304 36.0891 21.2648 36.255 21.2661C36.421 21.2675 36.5856 21.2358 36.7392 21.1729C36.8928 21.11 37.0323 21.0171 37.1496 20.8997C37.2669 20.7822 37.3597 20.6426 37.4224 20.489C37.4852 20.3353 37.5168 20.1707 37.5153 20.0047C37.5137 19.8388 37.4792 19.6748 37.4136 19.5223C37.348 19.3698 37.2527 19.2319 37.1333 19.1167L22.6516 4.63334C22.3034 4.28511 21.89 4.00889 21.435 3.82043C20.98 3.63197 20.4924 3.53497 19.9999 3.53497C19.5075 3.53497 19.0198 3.63197 18.5649 3.82043C18.1099 4.00889 17.6965 4.28511 17.3483 4.63334L2.86495 19.1167C2.74561 19.232 2.65045 19.37 2.58501 19.5225C2.51957 19.6751 2.48517 19.8391 2.48381 20.0051C2.48244 20.1711 2.51415 20.3357 2.57707 20.4892C2.64 20.6428 2.73288 20.7824 2.8503 20.8997C2.96772 21.017 3.10733 21.1097 3.26098 21.1725C3.41463 21.2353 3.57924 21.2668 3.74521 21.2653C3.91118 21.2638 4.07519 21.2292 4.22767 21.1637C4.38014 21.0981 4.51803 21.0028 4.63328 20.8833L19.1166 6.40167Z" fill="#434D75"/>
<path d="M20 9.05334L33.5983 22.6517C33.6483 22.7017 33.6983 22.7483 33.75 22.795V33.125C33.75 34.85 32.35 36.25 30.625 36.25H25C24.6685 36.25 24.3505 36.1183 24.1161 35.8839C23.8817 35.6495 23.75 35.3315 23.75 35V27.5C23.75 27.1685 23.6183 26.8505 23.3839 26.6161C23.1495 26.3817 22.8315 26.25 22.5 26.25H17.5C17.1685 26.25 16.8505 26.3817 16.6161 26.6161C16.3817 26.8505 16.25 27.1685 16.25 27.5V35C16.25 35.3315 16.1183 35.6495 15.8839 35.8839C15.6495 36.1183 15.3315 36.25 15 36.25H9.375C8.5462 36.25 7.75134 35.9208 7.16529 35.3347C6.57924 34.7487 6.25 33.9538 6.25 33.125V22.795C6.30185 22.7486 6.35243 22.7008 6.40167 22.6517L20 9.05334Z" fill="#434D75"/>
</svg>
