<svg width="24" height="24" viewBox="0 0 24 24" fill="none" xmlns="http://www.w3.org/2000/svg">
<path d="M32.5625 25.0282C32.5625 26.7429 32.2981 28.3937 31.8144 29.9321L29.525 27.4573C29.6752 26.6578 29.7506 25.844 29.75 25.0282V21.988C29.75 21.5848 29.8982 21.1981 30.1619 20.9131C30.4256 20.628 30.7833 20.4678 31.1562 20.4678C31.5292 20.4678 31.8869 20.628 32.1506 20.9131C32.4143 21.1981 32.5625 21.5848 32.5625 21.988V25.0282ZM18.5 37.1891C20.8006 37.1891 22.9381 36.4443 24.7213 35.1613L26.7406 37.3472C24.7312 38.9175 22.3734 39.8856 19.9062 40.1533V46.3098H28.3438C28.7167 46.3098 29.0744 46.47 29.3381 46.755C29.6018 47.0401 29.75 47.4268 29.75 47.8299C29.75 48.2331 29.6018 48.6197 29.3381 48.9048C29.0744 49.1899 28.7167 49.35 28.3438 49.35H8.65625C8.28329 49.35 7.9256 49.1899 7.66188 48.9048C7.39816 48.6197 7.25 48.2331 7.25 47.8299C7.25 47.4268 7.39816 47.0401 7.66188 46.755C7.9256 46.47 8.28329 46.3098 8.65625 46.3098H17.0938V40.1533C13.625 39.7765 10.4095 38.0203 8.07091 35.2255C5.73233 32.4308 4.43746 28.7966 4.4375 25.0282V21.988C4.4375 21.5848 4.58566 21.1981 4.84938 20.9131C5.1131 20.628 5.47079 20.4678 5.84375 20.4678C6.21671 20.4678 6.5744 20.628 6.83812 20.9131C7.10184 21.1981 7.25 21.5848 7.25 21.988V25.0282C7.25 28.2535 8.43526 31.3466 10.545 33.6273C12.6548 35.9079 15.5163 37.1891 18.5 37.1891ZM26.9375 9.82703V24.6603L24.125 21.6201V9.82703C24.1315 8.24082 23.5643 6.71466 22.5445 5.57416C21.5246 4.43365 20.1328 3.76911 18.666 3.7223C17.1993 3.67549 15.7737 4.25013 14.6933 5.32361C13.613 6.39709 12.9635 7.88442 12.8834 9.46828L10.5069 6.89929C11.1508 4.85395 12.4452 3.12198 14.1598 2.01171C15.8744 0.901451 17.8979 0.484945 19.87 0.836347C21.8421 1.18775 23.6348 2.28425 24.929 3.93065C26.2232 5.57705 26.935 7.6665 26.9375 9.82703Z" fill="#F8F8F8"/>
<path d="M22.6794 32.9546L20.5756 30.6805C19.7224 31.0467 18.7992 31.1816 17.8866 31.0733C16.974 30.9651 16.0999 30.6171 15.3403 30.0597C14.5808 29.5022 13.959 28.7523 13.5293 27.8754C13.0996 26.9984 12.875 26.0211 12.875 25.0287V22.3594L10.0625 19.3192V25.0287C10.0621 26.6258 10.4496 28.195 11.1863 29.5794C11.923 30.9638 12.9831 32.1147 14.2605 32.9172C15.538 33.7197 16.9879 34.1455 18.4653 34.152C19.9428 34.1586 21.3959 33.7457 22.6794 32.9546ZM0.629395 4.82335L34.3794 41.3061L36.3706 39.1536L2.62064 2.67087L0.629395 4.82335Z" fill="#F8F8F8"/>
</svg>
