<svg width="40" height="41" viewBox="0 0 40 41" fill="none" xmlns="http://www.w3.org/2000/svg">
<path fill-rule="evenodd" clip-rule="evenodd" d="M8.75004 15.3333C8.75004 12.3496 9.9353 9.48815 12.0451 7.37836C14.1549 5.26858 17.0164 4.08331 20 4.08331C22.9837 4.08331 25.8452 5.26858 27.955 7.37836C30.0648 9.48815 31.25 12.3496 31.25 15.3333V16.5833C31.25 20.1216 32.5834 23.345 34.78 25.7833C34.9169 25.935 35.0145 26.1178 35.0643 26.3159C35.1141 26.514 35.1146 26.7213 35.0657 26.9196C35.0169 27.118 34.9202 27.3013 34.7841 27.4536C34.648 27.6059 34.4766 27.7226 34.285 27.7933C31.7117 28.7433 29.0184 29.4433 26.2334 29.865C26.2961 30.7219 26.1814 31.5825 25.8966 32.3931C25.6117 33.2037 25.1628 33.9469 24.5779 34.5762C23.9929 35.2055 23.2845 35.7075 22.4969 36.0507C21.7092 36.394 20.8592 36.5711 20 36.5711C19.1408 36.5711 18.2909 36.394 17.5032 36.0507C16.7156 35.7075 16.0071 35.2055 15.4222 34.5762C14.8372 33.9469 14.3883 33.2037 14.1035 32.3931C13.8186 31.5825 13.704 30.7219 13.7667 29.865C11.0195 29.4487 8.32168 28.754 5.71504 27.7916C5.52359 27.721 5.35236 27.6045 5.21631 27.4524C5.08025 27.3003 4.9835 27.1172 4.9345 26.9191C4.88551 26.721 4.88577 26.5139 4.93525 26.3159C4.98473 26.1179 5.08194 25.9351 5.21837 25.7833C7.49638 23.2611 8.75517 19.982 8.75004 16.5833V15.3333ZM16.2534 30.1666C16.232 30.672 16.3132 31.1764 16.4918 31.6495C16.6705 32.1227 16.9431 32.5548 17.2931 32.9199C17.6431 33.285 18.0633 33.5755 18.5285 33.774C18.9937 33.9724 19.4943 34.0747 20 34.0747C20.5058 34.0747 21.0063 33.9724 21.4715 33.774C21.9367 33.5755 22.357 33.285 22.707 32.9199C23.057 32.5548 23.3296 32.1227 23.5082 31.6495C23.6869 31.1764 23.768 30.672 23.7467 30.1666C21.254 30.3912 18.7461 30.3912 16.2534 30.1666Z" fill="#434D75"/>
</svg>
