<svg width="85" height="86" viewBox="0 0 85 86" fill="none" xmlns="http://www.w3.org/2000/svg">
<rect y="0.5" width="85" height="85" rx="15" fill="#869AE9"/>
<path d="M15 27.6923C15 51.0574 33.9426 70 57.3077 70H63.6538C65.3369 70 66.9511 69.3314 68.1413 68.1413C69.3314 66.9511 70 65.3369 70 63.6538V59.7841C70 58.3287 69.01 57.0595 67.5969 56.7069L55.1218 53.5874C53.8808 53.2772 52.5777 53.7426 51.8133 54.7636L49.0774 58.4105C48.2821 59.471 46.9085 59.9392 45.6646 59.4823C41.0471 57.7847 36.8538 55.1037 33.375 51.625C29.8963 48.1462 27.2153 43.9529 25.5177 39.3354C25.0608 38.0915 25.529 36.7179 26.5895 35.9226L30.2364 33.1867C31.2603 32.4223 31.7228 31.1164 31.4126 29.8782L28.2931 17.4031C28.1214 16.7168 27.7254 16.1076 27.1678 15.6722C26.6103 15.2368 25.9233 15.0002 25.2159 15H21.3462C19.663 15 18.0489 15.6686 16.8587 16.8587C15.6686 18.0489 15 19.663 15 21.3462V27.6923Z" stroke="#434D75" stroke-width="4" stroke-linecap="round" stroke-linejoin="round"/>
<path d="M52.2668 23.3473V33.2729H59.7109M67.1551 33.2729C67.1551 37.2215 65.5865 41.0084 62.7944 43.8005C60.0023 46.5926 56.2154 48.1612 52.2668 48.1612C48.3181 48.1612 44.5313 46.5926 41.7392 43.8005C38.9471 41.0084 37.3785 37.2215 37.3785 33.2729C37.3785 29.3243 38.9471 25.5374 41.7392 22.7453C44.5313 19.9532 48.3181 18.3846 52.2668 18.3846C56.2154 18.3846 60.0023 19.9532 62.7944 22.7453C65.5865 25.5374 67.1551 29.3243 67.1551 33.2729Z" stroke="#434D75" stroke-width="4" stroke-linecap="round" stroke-linejoin="round"/>
</svg>
