<svg width="85" height="86" viewBox="0 0 85 86" fill="none" xmlns="http://www.w3.org/2000/svg">
<rect y="0.5" width="85" height="85" rx="15" fill="#869AE9"/>
<path d="M15 27.6923C15 51.0574 33.2814 70 55.831 70H61.9556C63.58 70 65.1378 69.3314 66.2864 68.1413C67.435 66.9511 68.0803 65.3369 68.0803 63.6538V59.7841C68.0803 58.3287 67.1248 57.0595 65.7611 56.7069L53.7214 53.5874C52.5237 53.2772 51.2661 53.7426 50.5284 54.7636L47.888 58.4105C47.1204 59.471 45.7947 59.9392 44.5943 59.4823C40.1379 57.7847 36.091 55.1037 32.7337 51.625C29.3763 48.1462 26.7889 43.9529 25.1506 39.3354C24.7096 38.0915 25.1615 36.7179 26.185 35.9226L29.7046 33.1867C30.6927 32.4223 31.1391 31.1164 30.8397 29.8782L27.8291 17.4031C27.6634 16.7168 27.2812 16.1076 26.7431 15.6722C26.2051 15.2368 25.542 15.0002 24.8593 15H21.1246C19.5003 15 17.9425 15.6686 16.7939 16.8587C15.6453 18.0489 15 19.663 15 21.3462V27.6923Z" stroke="#434D75" stroke-width="4" stroke-linecap="round" stroke-linejoin="round"/>
<path d="M57.0075 17.1154L70 30.5778M70 30.5778L57.0075 44.0401M70 30.5778H38.8181" stroke="#434D75" stroke-width="4" stroke-linecap="round" stroke-linejoin="round"/>
</svg>
