<svg width="85" height="86" viewBox="0 0 85 86" fill="none" xmlns="http://www.w3.org/2000/svg">
<rect y="0.5" width="85" height="85" rx="15" fill="#869AE9"/>
<path d="M37.9167 24.1667C33.3842 24.1667 28.9535 25.5107 25.1849 28.0288C21.4162 30.547 18.4789 34.1261 16.7444 38.3135C15.0099 42.501 14.5561 47.1088 15.4403 51.5542C16.3246 55.9996 18.5072 60.0829 21.7121 63.2879C24.9171 66.4928 29.0005 68.6754 33.4459 69.5597C37.8913 70.4439 42.499 69.9901 46.6865 68.2556C50.874 66.5211 54.4531 63.5838 56.9712 59.8152C59.4893 56.0465 60.8333 51.6158 60.8333 47.0834H37.9167V24.1667Z" stroke="#434D75" stroke-width="4" stroke-linecap="round" stroke-linejoin="round"/>
<path d="M47.0833 37.9167H70C70 31.8388 67.5856 26.0098 63.2878 21.7121C58.9901 17.4144 53.1612 15 47.0833 15V37.9167Z" stroke="#434D75" stroke-width="4" stroke-linecap="round" stroke-linejoin="round"/>
</svg>
