<svg width="85" height="86" viewBox="0 0 85 86" fill="none" xmlns="http://www.w3.org/2000/svg">
<rect y="0.5" width="85" height="85" rx="15" fill="#869AE9"/>
<rect y="0.5" width="85" height="85" rx="15" stroke="#434D75"/>
<path d="M26.1399 52.5758C26.1399 51.2017 27.368 50.0866 28.8811 50.0866H34.3637C35.8768 50.0866 37.1049 51.2018 37.1049 52.5758V67.5108C37.1049 68.8849 35.8768 70 34.3637 70H28.8811C28.5212 70 28.1647 69.9356 27.8321 69.8105C27.4995 69.6854 27.1973 69.5021 26.9428 69.2709C26.6882 69.0398 26.4863 68.7654 26.3486 68.4634C26.2108 68.1614 26.1399 67.8377 26.1399 67.5108V52.5758ZM42.5874 42.6191C42.5874 41.245 43.8155 40.1299 45.3287 40.1299H50.8112C52.3244 40.1299 53.5525 41.2451 53.5525 42.6191V67.5108C53.5525 68.8849 52.3244 70 50.8112 70H45.3287C44.6017 70 43.9044 69.7377 43.3903 69.2709C42.8763 68.8041 42.5874 68.171 42.5874 67.5108V42.6191ZM59.035 32.6624C59.035 31.2883 60.2631 30.1732 61.7762 30.1732H67.2588C68.772 30.1732 70 31.2884 70 32.6624V67.5108C70 68.8849 68.7719 70 67.2588 70H61.7762C61.0492 70 60.352 69.7377 59.8379 69.2709C59.3238 68.8041 59.035 68.171 59.035 67.5108V32.6624Z" stroke="#434D75" stroke-width="4" stroke-linecap="round" stroke-linejoin="round"/>
<path d="M15 35.6321L28.3796 23.4829L36.9148 31.2332C39.3825 26.8166 43.453 23.3085 48.4392 21.3014L53.8703 19.1055M53.8703 19.1055L42.0962 15M53.8703 19.1055L49.351 29.7969" stroke="#434D75" stroke-width="4" stroke-linecap="round" stroke-linejoin="round"/>
</svg>
