<svg width="183" height="183" viewBox="0 0 183 183" fill="none" xmlns="http://www.w3.org/2000/svg">
<path fill-rule="evenodd" clip-rule="evenodd" d="M154.236 158.103C163.33 149.558 170.574 139.239 175.522 127.783C180.469 116.327 183.014 103.978 183 91.5C183 40.9638 142.036 0 91.5 0C40.9639 0 6.10864e-05 40.9638 6.10864e-05 91.5C-0.0143772 103.978 2.53078 116.327 7.47819 127.783C12.4256 139.239 19.6701 149.558 28.7639 158.103C45.7213 174.121 68.1731 183.031 91.5 183C114.827 183.031 137.279 174.121 154.236 158.103ZM36.5531 146.043C43.1418 137.8 51.5029 131.147 61.0154 126.579C70.5279 122.01 80.9473 119.643 91.5 119.654C102.053 119.643 112.472 122.01 121.985 126.579C131.497 131.147 139.858 137.8 146.447 146.043C139.259 153.304 130.7 159.066 121.268 162.993C111.835 166.921 101.717 168.936 91.5 168.923C81.2827 168.936 71.1645 166.921 61.7323 162.993C52.3 159.066 43.7415 153.304 36.5531 146.043ZM126.692 63.3461C126.692 72.6797 122.985 81.631 116.385 88.2308C109.785 94.8307 100.834 98.5384 91.5 98.5384C82.1664 98.5384 73.2151 94.8307 66.6153 88.2308C60.0155 81.631 56.3077 72.6797 56.3077 63.3461C56.3077 54.0126 60.0155 45.0613 66.6153 38.4614C73.2151 31.8616 82.1664 28.1538 91.5 28.1538C100.834 28.1538 109.785 31.8616 116.385 38.4614C122.985 45.0613 126.692 54.0126 126.692 63.3461Z" fill="url(#paint0_linear_274_173)"/>
<defs>
<linearGradient id="paint0_linear_274_173" x1="0" y1="91.5" x2="183" y2="91.5" gradientUnits="userSpaceOnUse">
<stop stop-color="#869AE9"/>
<stop offset="0.0001" stop-color="#1770B7"/>
<stop offset="1" stop-color="#27E2D3"/>
</linearGradient>
</defs>
</svg>
